PathFileType	4	(x/y/z)	A01_FAST_T0022.trc
DataRate	CameraRate	NumFrames	NumMarkers	Units	OrigDataRate	OrigDataStartFrame	OrigNumFrames
240	240	11	48	mm	240	38	299
Frame#	Time	TOP_HEAD			R_AC			L_AC			R_ASIS			L_ASIS			R_PSIS			L_PSIS			SACRAL			L_IC			R_IC			L_GT			R_GT			R_LAT_KNEE			R_MED_KNEE			L_MED_KNEE			L_LAT_KNEE			R_TOE			L_TOE			R_1ST_MET			L_1ST_MET			L_5TH_MET			R_5TH_MET			R_LAT_ANK			R_MED_ANK			L_MED_ANK			L_LAT_ANK			L_HEEL_SUP			R_HEEL_SUP			L_HEEL_LAT			R_HEEL_LAT			L_HEEL_MED			R_HEEL_MED			R_LL_PROX_POST			R_LL_PROX_ANT			R_LL_DIST_ANT			R_LL_DIST_POST			R_THIGH_PROX_POST			R_THIGH_PROX_ANT			R_THIGH_DIST_ANT			R_THIGH_DIST_POST			L_PROS_PROX_ANT			L_PROS_PROX_POST			L_PROS_DIST_POST			L_PROS_DIST_ANT			L_THIGH_PROX_ANT			L_THIGH_PROX_POST			L_THIGH_DIST_POST			L_THIGH_DIST_ANT			
		X1	Y1	Z1	X2	Y2	Z2	X3	Y3	Z3	X4	Y4	Z4	X5	Y5	Z5	X6	Y6	Z6	X7	Y7	Z7	X8	Y8	Z8	X9	Y9	Z9	X10	Y10	Z10	X11	Y11	Z11	X12	Y12	Z12	X13	Y13	Z13	X14	Y14	Z14	X15	Y15	Z15	X16	Y16	Z16	X17	Y17	Z17	X18	Y18	Z18	X19	Y19	Z19	X20	Y20	Z20	X21	Y21	Z21	X22	Y22	Z22	X23	Y23	Z23	X24	Y24	Z24	X25	Y25	Z25	X26	Y26	Z26	X27	Y27	Z27	X28	Y28	Z28	X29	Y29	Z29	X30	Y30	Z30	X31	Y31	Z31	X32	Y32	Z32	X33	Y33	Z33	X34	Y34	Z34	X35	Y35	Z35	X36	Y36	Z36	X37	Y37	Z37	X38	Y38	Z38	X39	Y39	Z39	X40	Y40	Z40	X41	Y41	Z41	X42	Y42	Z42	X43	Y43	Z43	X44	Y44	Z44	X45	Y45	Z45	X46	Y46	Z46	X47	Y47	Z47	X48	Y48	Z48	

38	0.15468	-442.79	1744.1	260.08	-623.85	1534.2	530.82	-706.47	1514.1	77.645	-683.04	1060	540.79	-654.06	1005.6	190.18	-887.85	1075.3	393.9	-871.36	1062.3	264.92	-897.56	1040	328.08	-691.05	1120.6	138.04	-703.31	1185.8	530.13	-702.38	922.66	146.92	-773.47	961.94	575.25	-910.1	580.74	518.9	NaN	NaN	NaN	-539.07	564.09	379.76	-566.22	565.33	219.66	-1081.5	58.242	429.25	-268.12	111.48	267.44	-1147.6	57.294	378.51	-342.58	74.457	324.49	-373.8	62.423	196.86	-1174.9	61.017	513.17	-1191.7	200	489.99	-1174.1	200.55	388.97	-485.08	127.72	310.86	-516.16	113.4	244.53	-588.69	63.697	286.34	-1278	245.6	425.11	-573.82	37.086	254.47	-1294.3	225.12	458.58	-563.69	36.275	318.36	-1289.2	221.47	397.95	-1082.5	484.36	508.49	-1031.5	439.79	535.66	-1069.2	375.22	518.57	-1111.8	406.46	501.19	-856.65	843.76	547.53	-785.68	841.38	562.52	-809.26	752.89	554.71	-876	756.46	538.01	-501.95	495.44	231.72	-555.58	482.46	221.45	-547.17	420.39	229.01	-497.13	439.67	238.07	-598.01	811.17	194.64	-663.04	793.05	169.68	-629.47	726.01	185.42	-570.16	743.54	207.63
39	0.15886	-435.27	1744.3	258.93	-616.82	1535.1	529.66	-698.75	1514.2	76.414	-676.21	1060.4	540.4	-647.48	1006.4	189.78	-881.06	1075.8	394.3	-864.74	1063.1	265.22	-890.8	1040.7	328.44	-684.08	1121	137.76	-696.22	1186.5	529.6	-696.16	923.6	146.72	-766.19	961.96	575.01	-899.69	579.65	519.48	NaN	NaN	NaN	-532.66	564.52	378.75	-559.89	565.81	218.72	-1080.3	57.373	429.47	-267.39	109.27	267.21	-1145.6	58.81	378.47	-342.08	72.91	324.4	-373.48	61.077	196.7	-1173.2	63.177	512.92	-1185.8	202.75	490.17	-1167.8	203.02	389.22	-483.83	127.41	310.61	-515.15	113.26	244.37	-588.47	64.094	286.25	-1270.2	250.85	424.93	-573.7	37.403	254.46	-1287.3	230.9	458.36	-563.6	36.552	318.32	-1282.3	227.32	397.76	-1072.8	485.4	508.57	-1022.6	440.21	536.07	-1060.9	376.09	518.92	-1103.1	407.89	501.24	-848.51	842.8	547.57	-777.46	841.13	562.31	-800.24	752.41	554.7	-867.05	755.32	538.15	-496.47	495.22	230.83	-550.24	482.82	220.62	-542.56	420.67	228.3	-492.28	439.37	237.25	-591.8	811.8	193.71	-657.11	793.78	169.34	-623.54	726.69	184.89	-563.97	744.13	206.56
40	0.16305	-427.8	1744.6	257.8	-609.81	1536	528.51	-690.99	1514.3	75.207	-669.38	1060.8	539.99	-640.93	1007.3	189.34	-874.29	1076.3	394.69	-858.13	1064	265.52	-884.05	1041.3	328.81	-677.09	1121.4	137.48	-689.17	1187.3	529.08	-689.99	924.58	146.51	-758.87	962.03	574.75	-889.04	578.53	520.1	NaN	NaN	NaN	-526.4	564.92	377.68	-553.72	566.24	217.71	-1079	56.427	429.72	-266.7	107.15	266.96	-1143.3	60.517	378.46	-341.6	71.435	324.28	-373.19	59.789	196.52	-1171.2	65.585	512.66	-1179.7	205.66	490.33	-1161.2	205.64	389.45	-482.61	127.14	310.34	-514.17	113.14	244.21	-588.24	64.478	286.17	-1262	256.27	424.75	-573.57	37.711	254.47	-1279.9	236.85	458.12	-563.5	36.825	318.29	-1275	233.34	397.56	-1062.9	486.46	508.68	-1013.4	440.66	536.53	-1052.4	377.02	519.3	-1094.2	409.38	501.32	-840.27	841.83	547.64	-769.15	840.9	562.13	-791.08	751.94	554.72	-857.95	754.17	538.32	-491.13	494.95	229.87	-545.04	483.14	219.74	-538.07	420.92	227.55	-487.56	439.05	236.39	-585.68	812.38	192.7	-651.27	794.49	168.96	-617.74	727.34	184.32	-557.9	744.67	205.42
41	0.16723	-420.38	1744.9	256.7	-602.83	1537	527.38	-683.2	1514.5	74.025	-662.53	1061.3	539.55	-634.39	1008.2	188.88	-867.53	1076.8	395.07	-851.54	1064.9	265.81	-877.31	1042	329.17	-670.08	1121.9	137.18	-682.16	1188.1	528.56	-683.86	925.57	146.28	-751.52	962.14	574.47	-878.18	577.4	520.76	NaN	NaN	NaN	-520.28	565.28	376.54	-547.7	566.61	216.66	-1077.4	55.407	430	-266.05	105.12	266.69	-1140.7	62.417	378.48	-341.14	70.027	324.15	-372.91	58.556	196.33	-1169	68.248	512.39	-1173.4	208.74	490.49	-1154.4	208.41	389.68	-481.41	126.89	310.06	-513.21	113.04	244.04	-587.99	64.85	286.1	-1253.5	261.83	424.56	-573.43	38.013	254.48	-1272.2	242.96	457.87	-563.37	37.094	318.26	-1267.3	239.52	397.35	-1052.7	487.57	508.82	-1004	441.13	537.02	-1043.7	377.99	519.69	-1085	410.93	501.42	-831.92	840.85	547.73	-760.75	840.7	561.96	-781.78	751.5	554.76	-848.7	753.01	538.53	-485.94	494.66	228.86	-539.97	483.42	218.8	-533.7	421.13	226.76	-482.98	438.71	235.47	-579.64	812.92	191.62	-645.52	795.19	168.53	-612.05	727.95	183.7	-551.94	745.14	204.21
42	0.17141	-413.02	1745.2	255.63	-595.88	1538.1	526.27	-675.39	1514.7	72.871	-655.68	1061.9	539.09	-627.86	1009.1	188.39	-860.78	1077.3	395.42	-844.96	1065.8	266.07	-870.58	1042.7	329.51	-663.07	1122.5	136.87	-675.19	1189	528.06	-677.76	926.56	146.03	-744.14	962.31	574.19	-867.11	576.27	521.46	NaN	NaN	NaN	-514.31	565.6	375.35	-541.85	566.91	215.57	-1075.7	54.32	430.3	-265.42	103.18	266.41	-1137.9	64.505	378.54	-340.68	68.684	324	-372.65	57.375	196.13	-1166.6	71.167	512.13	-1166.8	211.99	490.62	-1147.3	211.32	389.88	-480.24	126.68	309.77	-512.29	112.95	243.86	-587.73	65.211	286.05	-1244.7	267.52	424.36	-573.27	38.307	254.5	-1264.2	249.2	457.61	-563.23	37.36	318.24	-1259.3	245.83	397.12	-1042.3	488.71	509	-994.39	441.64	537.54	-1034.8	379.02	520.09	-1075.6	412.53	501.55	-823.48	839.86	547.85	-752.26	840.52	561.81	-772.35	751.09	554.83	-839.33	751.85	538.78	-480.9	494.33	227.8	-535.04	483.65	217.84	-529.45	421.3	225.93	-478.52	438.34	234.51	-573.68	813.39	190.48	-639.85	795.86	168.07	-606.48	728.53	183.03	-546.11	745.54	202.94
43	0.17559	-405.72	1745.5	254.6	-588.97	1539.2	525.18	-667.55	1515.1	71.746	-648.81	1062.5	538.61	-621.35	1010.1	187.88	-854.05	1077.8	395.74	-838.38	1066.7	266.31	-863.86	1043.3	329.83	-656.07	1123	136.55	-668.27	1189.9	527.56	-671.68	927.56	145.76	-736.73	962.51	573.88	-855.85	575.14	522.19	NaN	NaN	NaN	-508.49	565.88	374.13	-536.17	567.16	214.45	-1073.7	53.173	430.63	-264.83	101.32	266.11	-1134.7	66.774	378.64	-340.24	67.403	323.84	-372.4	56.247	195.93	-1163.8	74.339	511.87	-1160	215.4	490.74	-1140.1	214.37	390.08	-479.09	126.49	309.47	-511.39	112.87	243.68	-587.46	65.561	286	-1235.6	273.32	424.14	-573.11	38.596	254.53	-1255.8	255.55	457.34	-563.07	37.621	318.22	-1251	252.24	396.88	-1031.6	489.89	509.2	-984.54	442.19	538.08	-1025.6	380.12	520.5	-1065.9	414.2	501.7	-814.94	838.88	547.99	-743.68	840.36	561.67	-762.8	750.69	554.93	-829.83	750.68	539.05	-476	493.97	226.71	-530.25	483.84	216.84	-525.32	421.45	225.07	-474.21	437.96	233.53	-567.79	813.81	189.28	-634.26	796.5	167.56	-601.02	729.07	182.33	-540.38	745.88	201.61
44	0.17977	-398.48	1745.9	253.6	-582.11	1540.3	524.12	-659.69	1515.5	70.653	-641.94	1063.1	538.12	-614.85	1011	187.35	-847.32	1078.3	396.01	-831.81	1067.5	266.5	-857.13	1044	330.11	-649.08	1123.6	136.21	-661.39	1190.8	527.08	-665.63	928.54	145.47	-729.29	962.75	573.57	-844.41	574.03	522.95	NaN	NaN	NaN	-502.83	566.12	372.87	-530.64	567.36	213.3	-1071.5	51.978	430.99	-264.26	99.538	265.82	-1131.2	69.214	378.78	-339.81	66.187	323.68	-372.15	55.173	195.72	-1160.6	77.757	511.61	-1153	218.96	490.84	-1132.5	217.55	390.25	-477.98	126.33	309.17	-510.51	112.8	243.5	-587.18	65.901	285.97	-1226.3	279.2	423.92	-572.94	38.878	254.56	-1247.1	261.98	457.05	-562.91	37.877	318.21	-1242.4	258.72	396.62	-1020.7	491.11	509.43	-974.48	442.78	538.64	-1016.3	381.27	520.91	-1056	415.93	501.86	-806.31	837.89	548.15	-735.04	840.23	561.55	-753.15	750.33	555.05	-820.21	749.53	539.37	-471.25	493.58	225.6	-525.61	483.98	215.83	-521.32	421.56	224.19	-470.02	437.55	232.52	-561.97	814.17	188.02	-628.73	797.12	167.01	-595.66	729.56	181.59	-534.75	746.14	200.23
45	0.18395	-391.31	1746.2	252.65	-575.31	1541.5	523.09	-651.83	1515.9	69.593	-635.07	1063.9	537.61	-608.35	1011.9	186.8	-840.59	1078.8	396.23	-825.25	1068.4	266.64	-850.41	1044.6	330.34	-642.11	1124.2	135.86	-654.56	1191.8	526.61	-659.58	929.51	145.15	-721.82	963.02	573.25	-832.82	572.93	523.73	NaN	NaN	NaN	-497.33	566.32	371.59	-525.28	567.51	212.14	-1069	50.747	431.37	-263.72	97.849	265.52	-1127.3	71.814	378.97	-339.39	65.038	323.52	-371.92	54.157	195.52	-1157.1	81.409	511.38	-1145.7	222.67	490.91	-1124.8	220.86	390.39	-476.91	126.19	308.86	-509.65	112.74	243.32	-586.89	66.23	285.94	-1216.6	285.14	423.68	-572.77	39.152	254.6	-1238.1	268.47	456.75	-562.74	38.128	318.2	-1233.4	265.23	396.33	-1009.5	492.37	509.67	-964.22	443.41	539.22	-1006.7	382.48	521.31	-1045.9	417.71	502.03	-797.6	836.92	548.33	-726.32	840.12	561.44	-743.4	750	555.21	-810.49	748.38	539.71	-466.64	493.17	224.47	-521.1	484.1	214.8	-517.43	421.64	223.3	-465.96	437.12	231.5	-556.21	814.46	186.73	-623.27	797.72	166.43	-590.39	730.02	180.83	-529.22	746.32	198.81
46	0.18813	-384.2	1746.6	251.74	-568.56	1542.8	522.1	-643.96	1516.5	68.567	-628.19	1064.6	537.1	-601.86	1012.8	186.25	-833.87	1079.2	396.4	-818.69	1069.2	266.73	-843.68	1045.1	330.52	-635.18	1124.8	135.5	-647.79	1192.7	526.15	-653.55	930.45	144.8	-714.32	963.32	572.91	-821.09	571.86	524.53	NaN	NaN	NaN	-491.99	566.48	370.31	-520.07	567.61	210.97	-1066.2	49.5	431.78	-263.21	96.255	265.23	-1123	74.557	379.2	-338.99	63.962	323.37	-371.7	53.201	195.32	-1153.2	85.28	511.17	-1138.1	226.51	490.95	-1116.8	224.28	390.51	-475.88	126.07	308.57	-508.81	112.69	243.14	-586.6	66.547	285.93	-1206.8	291.11	423.43	-572.59	39.419	254.64	-1228.9	274.98	456.44	-562.56	38.373	318.19	-1224.2	271.74	396.02	-998.21	493.66	509.94	-953.76	444.09	539.79	-996.92	383.76	521.7	-1035.6	419.55	502.21	-788.81	835.96	548.52	-717.54	840.04	561.35	-733.57	749.71	555.38	-800.68	747.26	540.08	-462.17	492.74	223.33	-516.72	484.17	213.77	-513.65	421.7	222.4	-462.03	436.68	230.47	-550.51	814.7	185.39	-617.85	798.29	165.81	-585.21	730.43	180.04	-523.78	746.45	197.37
47	0.19231	-377.16	1747.1	250.87	-561.89	1544	521.14	-636.1	1517	67.579	-621.33	1065.4	536.58	-595.37	1013.7	185.68	-827.16	1079.6	396.5	-812.13	1070.1	266.75	-836.96	1045.7	330.64	-628.26	1125.4	135.13	-641.06	1193.6	525.7	-647.52	931.37	144.42	-706.8	963.64	572.56	-809.23	570.83	525.34	NaN	NaN	NaN	-486.81	566.61	369.02	-515.02	567.67	209.81	-1063.1	48.258	432.21	-262.73	94.765	264.96	-1118.3	77.426	379.47	-338.61	62.964	323.22	-371.5	52.31	195.13	-1148.8	89.345	510.98	-1130.3	230.47	490.95	-1108.6	227.8	390.59	-474.89	125.97	308.28	-508	112.65	242.97	-586.31	66.853	285.92	-1196.7	297.06	423.15	-572.42	39.677	254.68	-1219.4	281.48	456.12	-562.38	38.611	318.18	-1214.7	278.21	395.68	-986.71	495	510.22	-943.13	444.82	540.37	-986.97	385.09	522.08	-1025.1	421.44	502.39	-779.95	835.01	548.73	-708.71	839.99	561.26	-723.65	749.45	555.58	-790.77	746.16	540.48	-457.83	492.29	222.2	-512.48	484.22	212.75	-510	421.74	221.5	-458.23	436.23	229.46	-544.85	814.89	184.04	-612.48	798.83	165.17	-580.11	730.81	179.23	-518.42	746.51	195.91
48	0.19649	-370.18	1747.5	250.05	-555.29	1545.2	520.23	-628.25	1517.6	66.629	-614.47	1066.2	536.05	-588.89	1014.5	185.11	-820.44	1080	396.53	-805.57	1070.9	266.7	-830.23	1046.2	330.69	-621.38	1126	134.75	-634.39	1194.5	525.27	-641.49	932.27	144.02	-699.26	963.98	572.21	-797.25	569.85	526.16	NaN	NaN	NaN	-481.78	566.7	367.74	-510.11	567.7	208.64	-1059.6	47.048	432.66	-262.29	93.386	264.69	-1113.1	80.399	379.79	-338.26	62.049	323.08	-371.3	51.487	194.95	-1143.9	93.576	510.82	-1122.3	234.52	490.92	-1100.2	231.39	390.63	-473.94	125.89	308	-507.21	112.63	242.79	-586.03	67.147	285.91	-1186.4	302.97	422.84	-572.25	39.926	254.71	-1209.6	287.91	455.77	-562.2	38.842	318.18	-1204.9	284.58	395.31	-975.04	496.37	510.5	-932.33	445.59	540.93	-976.84	386.48	522.43	-1014.4	423.37	502.57	-771.01	834.1	548.95	-699.82	839.96	561.19	-713.67	749.24	555.79	-780.79	745.09	540.9	-453.63	491.82	221.07	-508.37	484.25	211.74	-506.45	421.76	220.61	-454.54	435.77	228.45	-539.24	815.03	182.68	-607.14	799.36	164.51	-575.07	731.16	178.41	-513.14	746.52	194.45
